<svg width="12" height="7" viewBox="0 0 12 7" fill="none" xmlns="http://www.w3.org/2000/svg">
<path d="M1.07342 1.10174C1.21849 0.956716 1.41523 0.875244 1.62036 0.875244C1.82549 0.875244 2.02222 0.956716 2.16729 1.10174L5.99659 4.93105L9.8259 1.10174C9.9718 0.960826 10.1672 0.882851 10.37 0.884614C10.5729 0.886377 10.7669 0.967735 10.9103 1.11117C11.0538 1.2546 11.1351 1.44863 11.1369 1.65146C11.1387 1.85429 11.0607 2.04971 10.9198 2.19561L6.54353 6.57185C6.39846 6.71688 6.20172 6.79835 5.99659 6.79835C5.79146 6.79835 5.59473 6.71688 5.44966 6.57185L1.07342 2.19561C0.928396 2.05054 0.846924 1.85381 0.846924 1.64868C0.846924 1.44355 0.928396 1.24681 1.07342 1.10174Z" fill="#484848"/>
</svg>
